<svg xmlns="http://www.w3.org/2000/svg" xml:space="preserve" width="2048" height="2048" style="shape-rendering:geometricPrecision;text-rendering:geometricPrecision;image-rendering:optimizeQuality;fill-rule:evenodd;clip-rule:evenodd"><defs><style>.fil7{fill:#b2ebf2}.fil3{fill:#e8c735}.fil4{fill:#37474f;fill-rule:nonzero}.fil1,.fil2,.fil5{fill:#455a64;fill-rule:nonzero}.fil1,.fil2{fill:#e8c735}.fil1{fill:#fdd835}</style></defs><g id="Layer_x0020_1"><g id="_360983552"><path id="_364002936" d="M580.307 1324.23c79.44 0 143.838 64.398 143.838 143.838 0 53.24-28.926 99.72-71.92 124.591v105.736H508.386v-105.736c-42.99-24.87-71.918-71.352-71.918-124.591 0-79.44 64.398-143.838 143.839-143.838z" style="fill:#fdd835"/><path id="_364002840" class="fil1" d="M599.222 1199.56c0-10.447-8.47-18.916-18.915-18.916-10.447 0-18.917 8.47-18.917 18.916v57.527c0 10.446 8.47 18.915 18.917 18.915 10.445 0 18.915-8.47 18.915-18.915v-57.527z"/><path id="_364002456" class="fil2" d="M730.882 1244.99c5.223-9.019 2.146-20.565-6.872-25.788-9.019-5.223-20.565-2.146-25.788 6.871l-28.763 49.82c-5.224 9.02-2.148 20.565 6.871 25.789 9.02 5.223 20.565 2.146 25.789-6.873l28.763-49.819z"/><path id="_364002528" class="fil2" d="M822.284 1350.13c9.019-5.223 12.095-16.77 6.872-25.787-5.223-9.019-16.77-12.096-25.787-6.873l-49.82 28.765c-9.02 5.223-12.096 16.77-6.872 25.787 5.223 9.019 16.768 12.095 25.787 6.871l49.82-28.763z"/><path id="_364002768" class="fil1" d="M357.245 1317.47c-9.019-5.223-20.564-2.146-25.788 6.873-5.223 9.018-2.146 20.564 6.871 25.787l49.82 28.763c9.02 5.224 20.565 2.147 25.789-6.871 5.223-9.018 2.146-20.565-6.872-25.787l-49.82-28.765z"/><path id="_364002264" class="fil1" d="M462.39 1226.07c-5.223-9.018-16.77-12.095-25.787-6.872-9.019 5.223-12.096 16.77-6.872 25.789l28.764 49.818c5.223 9.02 16.769 12.096 25.787 6.873 9.019-5.224 12.095-16.769 6.873-25.788l-28.765-49.82z"/><path id="_364002552" class="fil3" d="M580.306 1180.64v95.359c10.447 0 18.916-8.469 18.916-18.916v-57.528c0-10.445-8.47-18.915-18.916-18.915z"/><path id="_364002624" class="fil3" d="M580.306 1324.23v374.166h71.92V1592.66c42.993-24.87 71.92-71.35 71.92-124.591 0-79.44-64.4-143.839-143.84-143.839z"/><path id="_364002144" class="fil4" d="M557.039 1745.2c-12.924 0-23.401 10.478-23.401 23.401s10.477 23.4 23.401 23.4h46.535c12.923 0 23.4-10.477 23.4-23.4 0-12.923-10.477-23.401-23.4-23.401H557.04z"/><path id="_364002408" class="fil4" d="M536.229 1698.4c-12.924 0-23.4 10.478-23.4 23.4 0 12.924 10.476 23.401 23.4 23.401h88.155c12.923 0 23.4-10.477 23.4-23.401 0-12.922-10.477-23.4-23.4-23.4H536.23z"/><path id="_364002384" class="fil5" d="m594.068 458.482-196.744-.003v543.861h312.695v66.31H331.014V392.429h33.156l229.898.002z"/><path id="_364001880" style="fill:#00acc1" d="M1618.15 255.999H567.518v338.916H1618.15z"/><path id="_364001688" class="fil4" d="m647.908 906.19 129.308 129.31-129.308 129.31z"/><path id="_364001328" class="fil4" d="m1135.21 1774.85-129.31-129.31 129.31-129.31z"/><path id="_364001424" class="fil5" d="m1482.58 1002.48 203.35-.01h33.16V1678.7h-660.88v-66.31h594.57v-543.86h-170.2z"/><path id="_364001592" class="fil7" d="M652.249 527.189h339.245V323.725H652.249z"/><path id="_364001640" class="fil7" d="M1058.94 391.507h67.79v-67.782h-67.79z"/><path id="_364002000" class="fil7" d="M1160.62 391.507h67.78v-67.782h-67.78z"/><path id="_364001784" class="fil7" d="M1262.29 391.507h67.78v-67.782h-67.78z"/><path id="_490149488" class="fil7" d="M1431.75 391.507v-67.782h-67.79v67.782z"/><path id="_490147160" class="fil7" d="M1465.64 391.507h67.78v-67.782h-67.78z"/><path id="_360994472" class="fil7" d="M1465.64 527.073h67.78v-67.782h-67.78z"/><path id="_360984944" class="fil7" d="M1363.96 527.073h67.79v-67.782h-67.79z"/><path id="_360984560" class="fil7" d="M1330.07 527.073v-67.782h-67.78v67.782z"/><path id="_360984344" class="fil7" d="M1160.62 527.073h67.78v-67.782h-67.78z"/><path id="_360984056" class="fil7" d="M1058.94 527.073h67.79v-67.782h-67.79z"/><path id="_360984032" d="M1062.12 766.817h61.422l13.337 93.35c35.718 8.589 67.459 27.39 91.963 53.139l87.555-35.145 30.714 53.196-74.17 58.218c4.962 16.845 7.635 34.673 7.635 53.126 0 18.454-2.677 36.28-7.637 53.124l74.172 58.221-30.712 53.195-87.544-35.14c-24.508 25.756-56.256 44.558-91.978 53.147l-13.334 93.338h-61.423l-13.337-93.35c-35.718-8.589-67.459-27.39-91.964-53.139l-87.555 35.145-30.713-53.194 74.17-58.22c-4.963-16.845-7.635-34.672-7.635-53.126s2.671-36.282 7.634-53.126l-74.169-58.218 30.711-53.196 87.557 35.144c24.508-25.747 56.246-44.55 91.964-53.14l13.337-93.349zm-45.984 275.884c0 42.358 34.338 76.696 76.696 76.696 42.357 0 76.695-34.338 76.695-76.696s-34.338-76.696-76.695-76.696c-42.358 0-76.696 34.338-76.696 76.696z" style="fill:#78909c"/><path id="_360983960" d="m1072.09 778.312-13.03 91.208-7.588 1.825c-32.991 7.932-62.943 25.32-86.325 49.886l-5.374 5.647-85.538-34.334-20.742 35.928 72.458 56.876-2.203 7.476c-4.774 16.201-7.164 32.99-7.164 49.878 0 16.889 2.392 33.677 7.165 49.878l2.202 7.477-72.458 56.876 20.742 35.927 85.538-34.333 5.375 5.647c23.38 24.567 53.334 41.954 86.323 49.887l7.59 1.824 13.03 91.207h41.484l13.028-91.195 7.587-1.825c32.997-7.934 62.956-25.322 86.34-49.894l5.375-5.646 85.525 34.328 20.741-35.926-72.46-56.878 2.203-7.477c4.772-16.201 7.168-32.988 7.168-49.877 0-16.887-2.393-33.677-7.166-49.878l-2.203-7.476 72.458-56.878-20.741-35.926-85.538 34.334-5.375-5.646c-23.38-24.567-53.334-41.954-86.325-49.888l-7.588-1.825-13.029-91.207h-41.485zm-55.952 264.39c0 42.358 34.338 76.696 76.696 76.696 42.356 0 76.695-34.338 76.695-76.696s-34.339-76.696-76.695-76.696c-42.358 0-76.696 34.338-76.696 76.696z" style="fill:#90a4ae"/><path id="_360983696" d="M923.749 992.824c-4.774 16.201-7.165 32.99-7.165 49.878 0 16.889 2.393 33.677 7.166 49.878l2.202 7.478-72.459 56.876 20.743 35.926 85.538-34.333 5.375 5.647c23.38 24.567 53.334 41.954 86.323 49.887l7.59 1.824 13.029 91.207h20.742v-187.694c-42.357-.001-76.694-34.338-76.694-76.696s34.337-76.695 76.694-76.696V778.312h-20.742l-13.03 91.208-7.589 1.825c-32.99 7.932-62.942 25.32-86.324 49.886l-5.374 5.647-85.538-34.335-20.742 35.928 72.458 56.876-2.203 7.477z" style="fill:#82949d"/><path id="_360983336" d="M1048.79 860.168c-35.719 8.588-67.456 27.391-91.963 53.138l-87.556-35.144-30.713 53.196 74.169 58.218c-4.963 16.844-7.634 34.672-7.634 53.126 0 18.453 2.672 36.28 7.635 53.126l-74.17 58.22 30.713 53.194 87.556-35.145c24.504 25.748 56.245 44.55 91.963 53.14l13.336 93.349h30.712v-11.495h-20.742l-13.03-91.207-7.588-1.825c-32.99-7.932-62.944-25.319-86.324-49.886l-5.375-5.647-85.538 34.335-20.742-35.928 72.457-56.876-2.202-7.476c-4.772-16.203-7.165-32.99-7.165-49.88 0-16.887 2.39-33.676 7.165-49.878l2.202-7.477-72.458-56.875 20.743-35.928 85.537 34.334 5.374-5.646c23.383-24.565 53.333-41.954 86.325-49.887l7.589-1.824 13.03-91.208h20.742v-11.495h-30.712l-13.336 93.351z" style="fill:#6c828c"/></g></g><path style="fill:none" d="M0 0h2048v2048H0z"/></svg>